<?xml version="1.0" encoding="utf-8"?>
<!-- Generator: Adobe Illustrator 16.0.0, SVG Export Plug-In . SVG Version: 6.00 Build 0)  -->
<!DOCTYPE svg PUBLIC "-//W3C//DTD SVG 1.1//EN" "http://www.w3.org/Graphics/SVG/1.1/DTD/svg11.dtd">
<svg version="1.1" id="Layer_1" xmlns="http://www.w3.org/2000/svg" xmlns:xlink="http://www.w3.org/1999/xlink" x="0px" y="0px"
	 width="340.679px" height="524.27px" viewBox="0 0 340.679 524.27" enable-background="new 0 0 340.679 524.27"
	 xml:space="preserve">
<g>
	<defs>
		<rect id="SVGID_1_" width="340.679" height="524.27"/>
	</defs>
	<clipPath id="SVGID_2_">
		<use xlink:href="#SVGID_1_"  overflow="visible"/>
	</clipPath>
	<path clip-path="url(#SVGID_2_)" fill="#FFFFFF" d="M315.41,524.27c-29.247-82.831-25.328-138.797-87.645-212.444
		c-31.16-42.528-77.897-174.205-87.812-201.114c-9.914-26.91-21.244-93.476-72.231-82.146C50.126,32.477,9.655,73.888,9.655,218.35
		c26.403,140.457,49.496,223.87,58.068,305.92"/>
	<path clip-path="url(#SVGID_2_)" fill="none" stroke="#000000" stroke-width="1.515" stroke-miterlimit="10" d="M315.41,524.27
		c-29.247-82.831-25.328-138.797-87.645-212.444c-31.16-42.528-77.897-174.205-87.812-201.114
		c-9.914-26.91-21.244-93.476-72.231-82.146C50.126,32.477,9.655,73.888,9.655,218.35c26.403,140.457,49.496,223.87,58.068,305.92"
		/>
	<path clip-path="url(#SVGID_2_)" fill="#939598" d="M246.818,524.272c-8.362-30.472-14.605-55.208-17.623-64.763
		c-9.093-28.793-77.287-172.002-78.803-176.548c-1.515-4.546-23.489-62.133-28.035-96.988
		c-4.547-34.855,4.546-101.534-28.036-93.957c-12.123,6.062-19.701,128.812-13.639,146.997
		c5.019,15.058,53.254,198.619,76.928,285.251"/>
	<path clip-path="url(#SVGID_2_)" fill="none" stroke="#000000" stroke-width="1.515" stroke-miterlimit="10" d="M246.818,524.272
		c-8.362-30.472-14.605-55.208-17.623-64.763c-9.093-28.793-77.287-172.002-78.803-176.548
		c-1.515-4.546-23.489-62.133-28.035-96.988c-4.547-34.855,4.546-101.534-28.036-93.957
		c-12.123,6.062-19.701,128.812-13.639,146.997c5.019,15.058,53.254,198.619,76.928,285.251"/>
	
		<circle clip-path="url(#SVGID_2_)" fill="none" stroke="#ED1C24" stroke-width="2" stroke-miterlimit="10" cx="98.091" cy="91.422" r="5"/>
	
		<line clip-path="url(#SVGID_2_)" fill="none" stroke="#ED1C24" stroke-miterlimit="10" x1="98.091" y1="86.422" x2="98.091" y2="96.422"/>
	
		<line clip-path="url(#SVGID_2_)" fill="none" stroke="#ED1C24" stroke-miterlimit="10" x1="93.091" y1="91.422" x2="103.091" y2="91.422"/>
	
		<circle clip-path="url(#SVGID_2_)" fill="none" stroke="#ED1C24" stroke-width="2" stroke-miterlimit="10" cx="81.295" cy="153.251" r="5"/>
	
		<line clip-path="url(#SVGID_2_)" fill="none" stroke="#ED1C24" stroke-miterlimit="10" x1="81.295" y1="148.251" x2="81.295" y2="158.251"/>
	
		<line clip-path="url(#SVGID_2_)" fill="none" stroke="#ED1C24" stroke-miterlimit="10" x1="76.295" y1="153.251" x2="86.295" y2="153.251"/>
	
		<circle clip-path="url(#SVGID_2_)" fill="none" stroke="#ED1C24" stroke-width="2" stroke-miterlimit="10" cx="120.757" cy="152.267" r="5"/>
	
		<line clip-path="url(#SVGID_2_)" fill="none" stroke="#ED1C24" stroke-miterlimit="10" x1="120.757" y1="147.267" x2="120.757" y2="157.267"/>
	
		<line clip-path="url(#SVGID_2_)" fill="none" stroke="#ED1C24" stroke-miterlimit="10" x1="115.757" y1="152.267" x2="125.757" y2="152.267"/>
	
		<circle clip-path="url(#SVGID_2_)" fill="none" stroke="#ED1C24" stroke-width="2" stroke-miterlimit="10" cx="110.757" cy="351.421" r="5"/>
	
		<line clip-path="url(#SVGID_2_)" fill="none" stroke="#ED1C24" stroke-miterlimit="10" x1="110.757" y1="346.421" x2="110.757" y2="356.421"/>
	
		<line clip-path="url(#SVGID_2_)" fill="none" stroke="#ED1C24" stroke-miterlimit="10" x1="105.757" y1="351.421" x2="115.757" y2="351.421"/>
	
		<circle clip-path="url(#SVGID_2_)" fill="none" stroke="#ED1C24" stroke-width="2" stroke-miterlimit="10" cx="177.201" cy="339.394" r="5"/>
	
		<line clip-path="url(#SVGID_2_)" fill="none" stroke="#ED1C24" stroke-miterlimit="10" x1="177.201" y1="334.394" x2="177.201" y2="344.394"/>
	
		<line clip-path="url(#SVGID_2_)" fill="none" stroke="#ED1C24" stroke-miterlimit="10" x1="172.201" y1="339.394" x2="182.201" y2="339.394"/>
</g>
<text transform="matrix(1 0 0 1 185.5352 348.0747)" fill="#ED1C24" font-family="'ArialMT'" font-size="10">7</text>
<text transform="matrix(1 0 0 1 100.7651 363.9751)" fill="#ED1C24" font-family="'ArialMT'" font-size="10">8</text>
<g>
	<defs>
		<rect id="SVGID_3_" width="340.679" height="524.27"/>
	</defs>
	<clipPath id="SVGID_4_">
		<use xlink:href="#SVGID_3_"  overflow="visible"/>
	</clipPath>
	
		<circle clip-path="url(#SVGID_4_)" fill="none" stroke="#ED1C24" stroke-width="1.119" stroke-miterlimit="10" stroke-dasharray="4.463,2.232" cx="98.091" cy="91.422" r="65"/>
	<path clip-path="url(#SVGID_4_)" fill="none" stroke="#ED1C24" stroke-width="1.119" stroke-miterlimit="10" d="M340.68,186.328
		c-0.272,0.695-0.548,1.388-0.826,2.08"/>
	
		<path clip-path="url(#SVGID_4_)" fill="none" stroke="#ED1C24" stroke-width="1.119" stroke-miterlimit="10" stroke-dasharray="4.507,2.253" d="
		M339.004,190.494c-38.957,94.451-131.945,160.928-240.458,160.928c-33.688,0-65.879-6.407-95.422-18.067"/>
	<path clip-path="url(#SVGID_4_)" fill="none" stroke="#ED1C24" stroke-width="1.119" stroke-miterlimit="10" d="M2.076,332.937
		c-0.692-0.277-1.383-0.556-2.073-0.839"/>
</g>
<text transform="matrix(1 0 0 1 68.7622 163.0171)" fill="#ED1C24" font-family="'ArialMT'" font-size="10">6</text>
<text transform="matrix(1 0 0 1 85.292 91.417)" fill="#ED1C24" font-family="'ArialMT'" font-size="10">2</text>
<text transform="matrix(1 0 0 1 128.2422 163.0171)" fill="#ED1C24" font-family="'ArialMT'" font-size="10">5</text>
</svg>
