<?xml version="1.0" encoding="UTF-8" standalone="no"?>
<!-- Generator: Adobe Illustrator 16.0.0, SVG Export Plug-In . SVG Version: 6.00 Build 0)  -->

<svg
   version="1.1"
   id="Layer_1"
   x="0px"
   y="0px"
   width="210.53571"
   height="248.39084"
   viewBox="0 0 210.53571 248.39085"
   enable-background="new 0 0 398.667 253.333"
   xml:space="preserve"
   sodipodi:docname="EndodonticToothAngles.svg"
   inkscape:version="1.2.1 (9c6d41e410, 2022-07-14)"
   xmlns:inkscape="http://www.inkscape.org/namespaces/inkscape"
   xmlns:sodipodi="http://sodipodi.sourceforge.net/DTD/sodipodi-0.dtd"
   xmlns:xlink="http://www.w3.org/1999/xlink"
   xmlns="http://www.w3.org/2000/svg"
   xmlns:svg="http://www.w3.org/2000/svg"><defs
   id="defs167">
	<defs
   id="defs33">
		<rect
   id="SVGID_5_"
   width="398.66699"
   height="253.33299"
   x="0"
   y="0" />
	</defs>
	<clipPath
   id="SVGID_6_">
		<use
   xlink:href="#SVGID_5_"
   overflow="visible"
   id="use35" />
	</clipPath>
	
	
	
	
	
	
	
	
	
	
	
	
	

	<defs
   id="defs11">
		<rect
   id="SVGID_3_"
   width="398.66699"
   height="253.33299"
   x="0"
   y="0" />
	</defs>
	<clipPath
   id="SVGID_4_">
		<use
   xlink:href="#SVGID_3_"
   overflow="visible"
   id="use13" />
	</clipPath>
	
	
	

	<defs
   id="defs73">
		<rect
   id="SVGID_7_"
   width="398.66699"
   height="253.33299"
   x="0"
   y="0" />
	</defs>
	<clipPath
   id="SVGID_8_">
		<use
   xlink:href="#SVGID_7_"
   overflow="visible"
   id="use75" />
	</clipPath>
	
		
	
		
	
		

	<defs
   id="defs91">
		<rect
   id="SVGID_9_"
   width="398.66699"
   height="253.33299"
   x="0"
   y="0" />
	</defs>
	<clipPath
   id="SVGID_10_">
		<use
   xlink:href="#SVGID_9_"
   overflow="visible"
   id="use93" />
	</clipPath>
	
	
	
	
		
	
		
	
		
	
		
</defs><sodipodi:namedview
   id="namedview165"
   pagecolor="#505050"
   bordercolor="#eeeeee"
   borderopacity="1"
   inkscape:showpageshadow="0"
   inkscape:pageopacity="0"
   inkscape:pagecheckerboard="0"
   inkscape:deskcolor="#505050"
   showgrid="false"
   inkscape:zoom="3.0351146"
   inkscape:cx="171.16323"
   inkscape:cy="121.90644"
   inkscape:window-width="2560"
   inkscape:window-height="1377"
   inkscape:window-x="-8"
   inkscape:window-y="-8"
   inkscape:window-maximized="1"
   inkscape:current-layer="Layer_1" />
<g
   id="g8"
   transform="translate(0,-4.9421528)">
	<defs
   id="defs3">
		<rect
   id="SVGID_1_"
   x="149.666"
   y="48.612999"
   width="249"
   height="204.72" />
	</defs>
	<clipPath
   id="SVGID_2_">
		<use
   xlink:href="#SVGID_1_"
   overflow="visible"
   id="use5" />
	</clipPath>
</g>











<g
   id="g1904"
   transform="translate(0,-4.9421528)"><path
     clip-path="url(#SVGID_4_)"
     fill="#d1d3d4"
     d="m 52.333,20.41 c 0.051,9.672 -17.525,91.702 -14.371,103.92 -2.912,27.471 35.649,108.003 35.649,108.003 0,0 -25.161,-70.724 -25.685,-100.727 C 49.856,87.829 64.333,22 64.333,22"
     id="path16" /><path
     clip-path="url(#SVGID_4_)"
     fill="none"
     stroke="#000000"
     stroke-width="0.25"
     stroke-miterlimit="10"
     d="m 52.333,20.41 c 0.051,9.672 -17.525,91.702 -14.371,103.92 -2.912,27.471 35.649,108.003 35.649,108.003 0,0 -25.161,-70.724 -25.685,-100.727 C 49.856,87.829 64.333,22 64.333,22"
     id="path18" /><path
     clip-path="url(#SVGID_4_)"
     fill="none"
     stroke="#000000"
     stroke-miterlimit="10"
     d="M 33,20.41 C 33,32 21.333,89.667 20,103.667 c -1.333,14 0.333,28 6,47.667 5.667,19.667 36.3,81 46.15,81 9.85,0 -2.817,-28 -3.817,-38 -1,-10 -12.008,-50.334 -12.008,-72.667 C 56.325,103 73.333,27.153 80.667,20.41"
     id="path20" /><text
     transform="translate(44.4165,18.6597)"
     font-family="ArialMT"
     font-size="10px"
     id="text24">4</text><text
     transform="translate(27.8364,122.0898)"
     font-family="ArialMT"
     font-size="10px"
     id="text28">3</text><path
     clip-path="url(#SVGID_6_)"
     d="m 39.083,117.733 c 0,0.828 -0.672,1.5 -1.5,1.5 -0.828,0 -1.5,-0.672 -1.5,-1.5 0,-0.828 0.672,-1.5 1.5,-1.5 0.828,0 1.5,0.672 1.5,1.5"
     id="path46" /><path
     clip-path="url(#SVGID_6_)"
     d="m 75.111,232.333 c 0,0.828 -0.672,1.5 -1.5,1.5 -0.828,0 -1.5,-0.672 -1.5,-1.5 0,-0.828 0.672,-1.5 1.5,-1.5 0.828,0 1.5,0.672 1.5,1.5"
     id="path48" /><path
     clip-path="url(#SVGID_6_)"
     d="m 66.667,210.666 c 0,0.828 -0.672,1.5 -1.5,1.5 -0.828,0 -1.5,-0.672 -1.5,-1.5 0,-0.828 0.672,-1.5 1.5,-1.5 0.828,0 1.5,0.672 1.5,1.5"
     id="path52" /><path
     clip-path="url(#SVGID_6_)"
     d="m 59.598,21.91 c 0,0.828 -0.672,1.5 -1.5,1.5 -0.828,0 -1.5,-0.672 -1.5,-1.5 0,-0.828 0.672,-1.5 1.5,-1.5 0.827,0 1.5,0.672 1.5,1.5"
     id="path62" /><text
     transform="translate(76.8335,236.583)"
     font-family="ArialMT"
     font-size="10px"
     id="text66">1</text><text
     transform="translate(56.5938,213.8828)"
     font-family="ArialMT"
     font-size="10px"
     id="text68">2</text><line
     clip-path="url(#SVGID_8_)"
     fill="none"
     stroke="#000000"
     stroke-width="0.5"
     stroke-miterlimit="10"
     stroke-dasharray="4, 2"
     x1="60.729"
     y1="11.984"
     x2="13.873"
     y2="229.711"
     id="line78" /><line
     clip-path="url(#SVGID_8_)"
     fill="none"
     stroke="#000000"
     stroke-width="0.5"
     stroke-miterlimit="10"
     stroke-dasharray="4, 2"
     x1="37.583"
     y1="117.733"
     x2="65.167"
     y2="210.666"
     id="line80" /><path
     clip-path="url(#SVGID_8_)"
     fill="none"
     stroke="#000000"
     stroke-width="0.5"
     stroke-miterlimit="10"
     stroke-dasharray="2, 1"
     d="m 45.249,83.917 c 15.458,3.489 27.002,17.304 27.002,33.816 0,19.146 -15.521,34.667 -34.667,34.667 -2.371,0 -4.687,-0.237 -6.925,-0.691"
     id="path82" /><text
     transform="translate(36.0835,149.167)"
     font-family="ArialMT"
     font-size="10px"
     id="text86">α</text><text
     transform="translate(63.6636,123.3364)"
     font-family="ArialMT"
     font-size="10px"
     id="text88">β</text></g>










<g
   id="g1886"
   transform="translate(-201.31036,-13.838028)"><text
     transform="translate(366.166,28.8398)"
     font-family="ArialMT"
     font-size="10px"
     id="text26">4</text><text
     transform="translate(345.8369,127.6699)"
     font-family="ArialMT"
     font-size="10px"
     id="text30">3</text><text
     transform="translate(382.4336,241.8828)"
     font-family="ArialMT"
     font-size="10px"
     id="text70">2</text><path
     clip-path="url(#SVGID_10_)"
     d="m 355.667,124.661 c 0,0.828 -0.672,1.5 -1.5,1.5 -0.828,0 -1.5,-0.672 -1.5,-1.5 0,-0.828 0.672,-1.5 1.5,-1.5 0.828,0 1.5,0.672 1.5,1.5"
     id="path96" /><path
     clip-path="url(#SVGID_10_)"
     d="m 391.694,239.261 c 0,0.828 -0.672,1.5 -1.5,1.5 -0.827,0 -1.5,-0.672 -1.5,-1.5 0,-0.828 0.673,-1.5 1.5,-1.5 0.828,0 1.5,0.672 1.5,1.5"
     id="path98" /><path
     clip-path="url(#SVGID_10_)"
     d="m 376.181,28.837 c 0,0.828 -0.672,1.5 -1.5,1.5 -0.828,0 -1.5,-0.672 -1.5,-1.5 0,-0.828 0.672,-1.5 1.5,-1.5 0.828,0 1.5,0.672 1.5,1.5"
     id="path100" /><line
     clip-path="url(#SVGID_10_)"
     fill="none"
     stroke="#000000"
     stroke-width="0.5"
     stroke-miterlimit="10"
     stroke-dasharray="4, 2"
     x1="376.45999"
     y1="22.872"
     x2="328.99399"
     y2="243.433"
     id="line102" /><line
     clip-path="url(#SVGID_10_)"
     fill="none"
     stroke="#000000"
     stroke-width="0.5"
     stroke-miterlimit="10"
     stroke-dasharray="4, 2"
     x1="374.681"
     y1="30.337"
     x2="390.194"
     y2="239.25999"
     id="line104" /><line
     clip-path="url(#SVGID_10_)"
     fill="none"
     stroke="#000000"
     stroke-width="0.5"
     stroke-miterlimit="10"
     stroke-dasharray="4, 2"
     x1="349.25"
     y1="108.927"
     x2="392.29199"
     y2="243.96001"
     id="line106" /><path
     clip-path="url(#SVGID_10_)"
     fill="none"
     stroke="#000000"
     stroke-width="0.5"
     stroke-miterlimit="10"
     stroke-dasharray="2, 1"
     d="m 361.832,90.845 c 15.458,3.489 27.002,17.304 27.002,33.816 0,19.146 -15.521,34.667 -34.667,34.667 -2.371,0 -4.687,-0.237 -6.925,-0.691"
     id="path108" /><text
     transform="translate(352.666,156.0938)"
     font-family="ArialMT"
     font-size="10px"
     id="text112">α</text><text
     transform="translate(359.4961,126.374)"
     font-family="ArialMT"
     font-size="10px"
     id="text114">β</text><text
     transform="translate(354.167,83.917)"
     font-family="ArialMT"
     font-size="10px"
     id="text158">A</text><text
     transform="translate(386.917,157.167)"
     font-family="ArialMT"
     font-size="10px"
     id="text160">B</text><text
     transform="translate(358.417,174.667)"
     font-family="ArialMT"
     font-size="10px"
     id="text162">C</text></g>
</svg>
