<?xml version="1.0" encoding="utf-8"?>
<!-- Generator: Adobe Illustrator 16.0.0, SVG Export Plug-In . SVG Version: 6.00 Build 0)  -->
<!DOCTYPE svg PUBLIC "-//W3C//DTD SVG 1.1//EN" "http://www.w3.org/Graphics/SVG/1.1/DTD/svg11.dtd">
<svg version="1.1" id="Layer_1" xmlns="http://www.w3.org/2000/svg" xmlns:xlink="http://www.w3.org/1999/xlink" x="0px" y="0px"
	 width="501.856px" height="334.985px" viewBox="0 0 501.856 334.985" enable-background="new 0 0 501.856 334.985"
	 xml:space="preserve">
<g>
	<defs>
		<rect id="SVGID_1_" width="501.856" height="334.985"/>
	</defs>
	<clipPath id="SVGID_2_">
		<use xlink:href="#SVGID_1_"  overflow="visible"/>
	</clipPath>
	<g clip-path="url(#SVGID_2_)">
		<defs>
			<rect id="SVGID_3_" width="501.856" height="334.985"/>
		</defs>
		<clipPath id="SVGID_4_">
			<use xlink:href="#SVGID_3_"  overflow="visible"/>
		</clipPath>
		<path clip-path="url(#SVGID_4_)" fill="#FFFFFF" d="M219.079,334.393c-30.006-53.918-67.077-158.254-75.78-181.873
			c-9.914-26.91-21.244-93.476-72.231-82.145C53.471,74.285,13,115.696,13,260.158c5.015,26.675,9.909,51.293,14.608,74.234"/>
		<path clip-path="url(#SVGID_4_)" fill="none" stroke="#000000" stroke-width="1.515" stroke-miterlimit="10" d="M219.079,334.393
			c-30.006-53.918-67.077-158.254-75.78-181.873c-9.914-26.91-21.244-93.476-72.231-82.145C53.471,74.285,13,115.696,13,260.158
			c5.015,26.675,9.909,51.293,14.608,74.234"/>
		<g opacity="0.85" clip-path="url(#SVGID_4_)">
			<g>
				<defs>
					<rect id="SVGID_5_" x="81.894" y="133.23" width="76.245" height="202.168"/>
				</defs>
				<clipPath id="SVGID_6_">
					<use xlink:href="#SVGID_5_"  overflow="visible"/>
				</clipPath>
				<path clip-path="url(#SVGID_6_)" fill="#939598" d="M158.138,335.376c-1.999-4.347-4.213-10.044-4.401-10.606
					c-1.515-4.547-23.489-62.133-28.035-96.988c-4.547-34.854,4.546-101.535-28.036-93.957
					c-12.123,6.061-19.701,128.813-13.639,146.997c1.529,4.587,7.113,25.99,14.804,54.576"/>
			</g>
		</g>
		<path clip-path="url(#SVGID_4_)" fill="none" stroke="#000000" stroke-width="1.515" stroke-miterlimit="10" d="M158.138,335.376
			c-1.999-4.347-4.213-10.044-4.401-10.606c-1.515-4.547-23.489-62.133-28.035-96.988c-4.547-34.854,4.546-101.535-28.036-93.957
			c-12.123,6.061-19.701,128.813-13.639,146.997c1.529,4.587,7.113,25.99,14.804,54.576"/>
		<path clip-path="url(#SVGID_4_)" fill="#FFFFFF" d="M492.867,334.195c-29.784-54.506-65.982-158.373-74.568-181.676
			c-9.914-26.909-21.244-93.475-72.23-82.145C328.471,74.285,288,115.696,288,260.158c5.015,26.678,9.91,51.297,14.609,74.239"/>
		<path clip-path="url(#SVGID_4_)" fill="none" stroke="#000000" stroke-width="1.515" stroke-miterlimit="10" d="M492.867,334.195
			c-29.784-54.506-65.982-158.373-74.568-181.676c-9.914-26.909-21.244-93.475-72.23-82.145C328.471,74.285,288,115.696,288,260.158
			c5.015,26.678,9.91,51.297,14.609,74.239"/>
		<g opacity="0.85" clip-path="url(#SVGID_4_)">
			<g>
				<defs>
					<rect id="SVGID_7_" x="326.773" y="41.165" width="118.591" height="293.82"/>
				</defs>
				<clipPath id="SVGID_8_">
					<use xlink:href="#SVGID_7_"  overflow="visible"/>
				</clipPath>
				<path clip-path="url(#SVGID_8_)" fill="#939598" d="M445.364,334.964c-21.294-46.781-45.864-99.607-46.748-102.26
					c-1.516-4.547-23.489-62.133-28.035-96.988c-4.547-34.855,4.546-101.534-28.036-93.957
					c-12.123,6.062-19.701,128.812-13.639,146.997c2.2,6.604,15.8,73.233,31.912,146.229"/>
			</g>
		</g>
		<path clip-path="url(#SVGID_4_)" fill="none" stroke="#000000" stroke-width="1.515" stroke-miterlimit="10" d="M445.364,334.964
			c-21.294-46.781-45.864-99.607-46.748-102.26c-1.516-4.547-23.489-62.133-28.035-96.988
			c-4.547-34.855,4.546-101.534-28.036-93.957c-12.123,6.062-19.701,128.812-13.639,146.997c2.2,6.604,15.8,73.233,31.912,146.229"
			/>
	</g>
	
		<line clip-path="url(#SVGID_2_)" fill="none" stroke="#ED1C24" stroke-miterlimit="10" x1="80.521" y1="68.998" x2="82.521" y2="69.001"/>
	
		<line clip-path="url(#SVGID_2_)" fill="none" stroke="#ED1C24" stroke-miterlimit="10" stroke-dasharray="4.102,2.051" x1="84.571" y1="69.005" x2="169.685" y2="69.174"/>
	
		<line clip-path="url(#SVGID_2_)" fill="none" stroke="#ED1C24" stroke-miterlimit="10" x1="170.709" y1="69.177" x2="172.709" y2="69.181"/>
	
		<line clip-path="url(#SVGID_2_)" fill="none" stroke="#ED1C24" stroke-miterlimit="10" x1="100.522" y1="133.138" x2="102.522" y2="133.143"/>
	
		<line clip-path="url(#SVGID_2_)" fill="none" stroke="#ED1C24" stroke-miterlimit="10" stroke-dasharray="4.07,2.035" x1="104.557" y1="133.148" x2="170.694" y2="133.314"/>
	
		<line clip-path="url(#SVGID_2_)" fill="none" stroke="#ED1C24" stroke-miterlimit="10" x1="171.711" y1="133.316" x2="173.711" y2="133.321"/>
	
		<line clip-path="url(#SVGID_2_)" fill="none" stroke="#ED1C24" stroke-miterlimit="10" x1="347.521" y1="41.111" x2="349.521" y2="41.115"/>
	
		<line clip-path="url(#SVGID_2_)" fill="none" stroke="#ED1C24" stroke-miterlimit="10" stroke-dasharray="3.962,1.981" x1="351.503" y1="41.119" x2="433.72" y2="41.289"/>
	
		<line clip-path="url(#SVGID_2_)" fill="none" stroke="#ED1C24" stroke-miterlimit="10" x1="434.711" y1="41.29" x2="436.711" y2="41.294"/>
	
		<line clip-path="url(#SVGID_2_)" fill="none" stroke="#ED1C24" stroke-miterlimit="10" x1="358.023" y1="69.127" x2="360.023" y2="69.132"/>
	
		<line clip-path="url(#SVGID_2_)" fill="none" stroke="#ED1C24" stroke-miterlimit="10" stroke-dasharray="4.064,2.032" x1="362.056" y1="69.136" x2="434.196" y2="69.304"/>
	
		<line clip-path="url(#SVGID_2_)" fill="none" stroke="#ED1C24" stroke-miterlimit="10" x1="435.213" y1="69.306" x2="437.213" y2="69.311"/>
	
		<line clip-path="url(#SVGID_2_)" fill="none" stroke="#ED1C24" stroke-miterlimit="10" x1="166.356" y1="76.371" x2="166.356" y2="126.078"/>
	<polygon clip-path="url(#SVGID_2_)" fill="#ED1C24" points="166.356,69.311 162.291,79.259 166.356,76.898 170.42,79.259 	"/>
	<polygon clip-path="url(#SVGID_2_)" fill="#ED1C24" points="166.356,133.138 162.291,123.189 166.356,125.55 170.42,123.189 	"/>
	
		<line clip-path="url(#SVGID_2_)" fill="none" stroke="#ED1C24" stroke-miterlimit="10" x1="430.856" y1="48.261" x2="430.856" y2="61.968"/>
	<polygon clip-path="url(#SVGID_2_)" fill="#ED1C24" points="430.856,41.2 426.791,51.149 430.856,48.789 434.92,51.149 	"/>
	<polygon clip-path="url(#SVGID_2_)" fill="#ED1C24" points="430.856,69.028 426.791,59.079 430.856,61.44 434.92,59.079 	"/>
	<g clip-path="url(#SVGID_2_)">
		<text transform="matrix(1 0 0 1 170.3564 103.9722)" font-family="'ArialMT'" font-size="10">- d</text>
	</g>
	<g clip-path="url(#SVGID_2_)">
		<text transform="matrix(1 0 0 1 437.2168 58.4722)" font-family="'ArialMT'" font-size="10">+ d</text>
	</g>
</g>
</svg>
